<?xml version="1.0" encoding="UTF-8"?>
<svg id="Capa_2" data-name="Capa 2" xmlns="http://www.w3.org/2000/svg" viewBox="0 0 260.59 102">
  <defs>
    <style>
      .cls-1 {
        fill: #3a383a;
      }
    </style>
  </defs>
  <g id="Capa_2-2" data-name="Capa 2">
    <g id="uuid-066b9c13-4a6f-47d6-99ea-31cd275da637" data-name="Capa 2-2">
      <g id="Layer_1" data-name="Layer 1">
        <g>
          <g>
            <path class="cls-1" d="M8.5,91c0-.7.2-.9.9-.9h.4c2.3,0,2.6,1.2,2.6,2.6s-.4,2.8-2.5,2.8h-1.5v-4.5h.1ZM15.7,98.8h-.6v.2c0,.9-.2,1.3-.3,1.4h-.2c-.5,0-.7-.3-1.4-2.2-.5-1.4-1.1-2-1.8-2.3,1.9-.5,3-1.6,3-3.2s-.3-1.5-.8-2c-.8-.7-2-1.1-3.7-1.1h-4.8v.6h.7c.8,0,.9.2.9.9v9.2c0,.7-.2.9-.9.9h-.7v.6h5v-.6h-.7c-.7,0-.9-.2-.9-.9v-4.1h1c1.4,0,1.9.1,2.2,2.8.2,2,.9,2.9,2.3,2.9s.8-.2,1.1-.5c.5-.5.7-1.3.6-2.4v-.2h0Z"/>
            <path class="cls-1" d="M34.5,96.9c-.5,2.6-.9,4.2-3.3,4.2h-1.4c-.8,0-1-.2-1-.9v-4.6h.7c1.4,0,2,.8,2,2.5v.2h.5v-5.7h-.5v.2c0,1.6-.6,2.3-2,2.3h-.7v-4.1c0-.7.2-.9,1-.9h1.1c2.4,0,2.9,1.2,3.3,3.9h0c0,.1.5.1.5.1l-.2-4.6h-9v.6h.7c.7,0,.9.2.9.9v9.2c0,.7-.2.9-.9.9h-.7v.6h9.2l.3-4.9h-.5q0,.1,0,.1Z"/>
            <path class="cls-1" d="M50.3,94.6c-2.6-.7-3-1.4-3-2.6s.9-2.1,2.1-2.1,3,1.1,3.7,4.3h0c0,.1.5.1.5.1v-5h-.7c-.2,1-.4,1.1-.5,1.1-.2,0-.4,0-.5-.2h0c-.8-.6-1.6-.8-2.5-.8-1.9,0-3.3,1.5-3.3,3.4s2,3.2,3.8,3.7h.2c1.9.6,3.1,1.3,3.1,2.7s-.9,2.2-2.2,2.2-3.8-1.1-4.4-4.3h0c0-.1-.6-.1-.6-.1v5h.7c.1-.7.3-1.1.5-1.1s.4,0,.7.2h.2c.6.4,1.4.8,2.9.8s3.4-1.4,3.4-3.4-1.4-3.1-3.9-3.8h0l-.2-.1Z"/>
            <path class="cls-1" d="M69.7,89.8c2.5,0,3,3.2,3,5.8,0,3.8-1,5.7-3,5.7s-3-3.2-3-5.8c0-3.8,1-5.7,3-5.7ZM69.7,89.2c-2.4,0-5,2.6-5,6.4s2.1,6.3,5,6.3,5-2.6,5-6.4-2.6-6.3-5-6.3Z"/>
            <path class="cls-1" d="M88.2,91c0-.7.2-.9.9-.9h.4c2.3,0,2.6,1.2,2.6,2.6s-.4,2.8-2.5,2.8h-1.5v-4.5h.1ZM95.3,98.8h-.6v.2c0,.9-.2,1.3-.3,1.4h-.2c-.5,0-.7-.3-1.4-2.2-.5-1.4-1.1-2-1.8-2.3,1.9-.5,3-1.6,3-3.2s-.3-1.5-.8-2c-.8-.7-2-1.1-3.7-1.1h-4.8v.6h.7c.8,0,.9.2.9.9v9.2c0,.7-.2.9-.9.9h-.7v.6h5v-.6h-.7c-.7,0-.9-.2-.9-.9v-4.1h1c1.4,0,1.9.1,2.2,2.8.2,2,.9,2.9,2.3,2.9s.8-.2,1.1-.5c.5-.5.7-1.3.6-2.4v-.2h0Z"/>
            <path class="cls-1" d="M105.4,89.5l-.2,4.9h.6c.4-2.7.9-4.4,3.2-4.4h.3v10.1c0,.7-.2.9-.9.9h-1v.6h5.5v-.6h-.9c-.8,0-.9-.2-.9-.9v-10.1h.3c2.2,0,2.8,1.4,3.2,4.2h0c0,.1.5.1.5.1l-.2-4.9h-9.5v.1Z"/>
            <path class="cls-1" d="M147,96.9c-.3,2.9-.7,4.2-3.3,4.2h-.8c-.8,0-.9-.2-.9-.9v-9.2c0-.7.2-.9.9-.9h.9v-.6h-5.2v.6h.7c.8,0,.9.2.9.9v9.2c0,.7-.2.9-.9.9h-.7v.6h8.7l.3-4.9h-.6v.1h0Z"/>
            <path class="cls-1" d="M157.8,90.1h.7c.8,0,.9.2.9.9v9.2c0,.7-.2.9-.9.9h-.7v.6h5.1v-.6h-.7c-.7,0-.9-.2-.9-.9v-9.2c0-.7.2-.9.9-.9h.7v-.6h-5.1v.6Z"/>
            <path class="cls-1" d="M180.7,90.1h.5c.3,0,.9,0,.9.6s-.2,1.1-.4,1.5l-2.7,7.3-2.8-7.9c-.1-.4-.2-.8-.2-1.1s.3-.5.8-.5h.6v-.6h-4.9v.6h.1c.8,0,1.1.3,1.4,1.1l3.9,10.7h0c0,.1.6.1.6.1l3.9-10.3c.5-1.3.7-1.5,1.5-1.6h.1v-.6h-3.6v.6h0l.3.1Z"/>
            <path class="cls-1" d="M194,90.1h.7c.8,0,.9.2.9.9v9.2c0,.7-.2.9-.9.9h-.7v.6h5.1v-.6h-.7c-.7,0-.9-.2-.9-.9v-9.2c0-.7.2-.9.9-.9h.7v-.6h-5.1v.6Z"/>
            <path class="cls-1" d="M216.9,90.1h.2c1.2,0,1.5.3,1.5,2v6.9l-7-9.4h-3v.6h.1c.8,0,1.5.5,1.7.8v8.2c0,1.7-.4,2-1.4,2h-.4v.6h4.2v-.6h-.2c-1.2,0-1.5-.3-1.5-2v-7.2l7.4,10h.7v-9.8c0-1.7.4-2,1.4-2h.4v-.6h-4.2v.6h0l.1-.1Z"/>
            <path class="cls-1" d="M236.7,96.1v.6h.7c.7,0,.9.1.9.9v1.4c0,1.1-.8,2.1-2.2,2.1s-3.2-1.7-3.2-5.6.9-5.7,2.9-5.7,2.9,1.5,3.6,4.1h0c0,.1.6.1.6.1v-4.9h-.6c-.1.8-.4,1.1-.5,1.1-.3,0-.4,0-.6-.2-.6-.4-1.4-.8-2.4-.8-2.4,0-5,2.4-5,6.3s2,6.2,5,6.2,1.6-.3,2.3-.8c.2-.1.4-.2.5-.2.2,0,.5.3.7.9h0c0,.1.5.1.5.1v-4.2c0-.8.2-.9.9-.9h.3v-.6h-4.5l.1.1Z"/>
          </g>
          <g>
            <polygon class="cls-1" points="11.5 1.5 46.6 53.6 46.6 1.5 50.7 1.5 50.7 68.6 45.2 68.6 8.3 13.7 8.3 68.6 4.3 68.6 4.3 7.9 0 1.5 11.5 1.5"/>
            <path class="cls-1" d="M72.7,51.6h27.5l-13.9-34.2-13.6,34.2h0ZM61.7,68.6l22.4-56.5-4.3-10.6h10.4l27.3,67.1h-10.4l-5.3-13h-30.7l-5.2,13h-4.3.1Z"/>
            <path class="cls-1" d="M144.4,62.2c.6.3,1.3.7,1.9,1s1.3.5,2,.8c3,1,6,1.4,9.1,1.2s6.2-1,9.2-2.4,5.9-3.4,8.5-5.9,5-5.6,6.9-9.2c2.2-4,3.6-8.1,4.3-12.1s.6-7.8-.1-11.3c-.7-3.5-2.1-6.7-4.1-9.5s-4.6-5.1-7.8-6.8c-1.1-.7-2.4-1.2-4-1.8-2.9-1-5.9-1.4-9-1.2-3.1.2-6.2,1-9.1,2.5-3,1.4-5.8,3.4-8.4,5.9-2.7,2.5-5,5.6-6.9,9.2-2.2,4-3.6,8.1-4.3,12.1-.6,4-.6,7.8.1,11.3.7,3.5,2.1,6.7,4.1,9.5s4.6,5.1,7.7,6.7h-.1ZM123.3,35c0-5.2.9-9.9,2.8-14.2,1.9-4.3,4.5-8,7.7-11.1s7.1-5.4,11.5-7.2c4.4-1.7,9.1-2.5,14.1-2.5s9.7.7,14.1,2.4c4.4,1.7,8.2,4.1,11.5,7.2s5.8,6.8,7.7,11.1,2.8,9.1,2.8,14.2-.9,9.9-2.8,14.2c-1.9,4.3-4.5,8-7.7,11.1s-7.1,5.4-11.5,7.2-9.1,2.5-14.1,2.4c-5,0-9.7-.8-14.1-2.4s-8.2-4.1-11.5-7.2-5.8-6.8-7.7-11.1c-1.9-4.3-2.8-9.1-2.8-14.2h0v.1Z"/>
            <path class="cls-1" d="M206,60.7l6.3-6.3c.5,1.1,1.3,2.3,2.3,3.7,2.2,2.9,4.8,4.9,7.5,6s5.4,1.5,7.8,1c3.3-.7,5.4-2.4,6.2-5.1s.7-5.8-.5-9.4c-.4-1.4-1.1-2.8-2.1-4.3s-2.1-2.9-3.4-4.4c-1.3-1.5-2.7-2.9-4.2-4.3s-3.1-2.8-4.6-4.1c-1.1-.9-2.2-1.8-3.4-2.8s-2.3-2-3.3-3.2-1.9-2.4-2.8-3.7-1.4-2.8-1.8-4.5c-.8-3.1-.8-5.7,0-8s1.9-4.2,3.4-5.8,3.2-2.8,5-3.6c1.9-.8,3.4-1.3,4.8-1.5,4-.6,7.6-.3,10.6.8,3,1.1,5.4,2.5,6.9,4.2l-3.9,3.9c-1.9-1.8-3.8-3.3-5.8-4.2-2-1-3.9-1.4-5.7-1.4s-3.2.4-4.3,1.2c-1.1.8-1.9,1.9-2.4,3.3-.4,1.3-.6,2.7-.5,3.9.1,1.6.5,3,1.1,4.2s1.4,2.4,2.4,3.5,2.1,2.2,3.4,3.3,2.6,2.2,4,3.4c3.5,3.1,6.4,5.8,8.5,8.3,2.2,2.5,3.9,4.7,5,6.8,1.2,2,1.9,4,2.3,5.9s.5,3.8.3,5.7c-.1,2.4-.9,4.7-2.2,6.8s-2.9,3.9-4.8,5.4c-2.1,1.7-4.3,2.8-6.7,3.5s-4.9,1-7.4,1.1c-4,.1-7.6-.7-10.7-2.3-3.2-1.7-5.7-4-7.6-6.9h0l.3-.1Z"/>
            <g>
              <path class="cls-1" d="M255.6,64.2c-2.7.3-3.9,3.7-2.2,5.7,1.8,2.2,5.4,1.5,6.1-1.3.7-2.5-1.4-4.7-3.9-4.4h0ZM255.6,63.3c3.2-.3,5.7,2.5,4.8,5.7-1.1,3.7-6.3,4.3-8.1.9-1.5-2.7.2-6.3,3.3-6.5h0v-.1Z"/>
              <path class="cls-1" d="M255.4,67.4h.7s.3-.1.3-.2c.3-.3.1-1-.2-1h-.8v1.2h0ZM256.4,65.3c.2,0,.7.1.9.2.9.5.7,2-.3,2.2.8.4,1,1.4,1.4,2.2h-1.3c-.2-.4-.5-1.3-.8-1.6-.2-.2-.9-.3-.9-.1v1.7h-1.2v-4.6h2.2Z"/>
            </g>
          </g>
        </g>
      </g>
    </g>
  </g>
</svg>