<?xml version="1.0" encoding="UTF-8"?>
<svg id="Capa_2" data-name="Capa 2" xmlns="http://www.w3.org/2000/svg" viewBox="0 0 260.59 101.9">
  <defs>
    <style>
      .cls-1 {
        fill: #3a383a;
      }
    </style>
  </defs>
  <g id="Capa_2-2" data-name="Capa 2">
    <g id="Layer_1" data-name="Layer 1">
      <g>
        <g>
          <path class="cls-1" d="M8.52,90.85c0-.69.19-.86.95-.86h.43c2.29,0,2.61,1.25,2.61,2.61,0,1.27-.43,2.78-2.51,2.78h-1.49s0-4.53,0-4.53ZM15.69,98.65h-.57v.16c.02.94-.18,1.27-.29,1.39-.06.06-.13.09-.2.09-.47,0-.74-.32-1.39-2.23-.48-1.38-1.14-1.97-1.82-2.32,1.94-.47,3-1.59,3-3.2,0-.83-.26-1.51-.78-2.03-.75-.74-2-1.13-3.7-1.11h-4.76v.58h.66c.75,0,.93.17.93.88v9.22c0,.71-.19.89-.93.89h-.66v.58h5.03v-.58h-.73c-.74,0-.95-.2-.95-.89v-4.13h1.02c1.4,0,1.86.13,2.16,2.83.23,2.03.93,2.93,2.27,2.93.45,0,.84-.17,1.14-.49.47-.5.67-1.35.59-2.43v-.15h0Z"/>
          <path class="cls-1" d="M34.51,96.76c-.45,2.55-.92,4.23-3.29,4.23h-1.42c-.75,0-.95-.18-.95-.88v-4.56h.72c1.37,0,2.02.79,2.04,2.47v.16h.54v-5.7h-.54v.16c-.02,1.61-.65,2.33-2.04,2.33h-.72v-4.1c0-.7.19-.88.95-.88h1.09c2.35,0,2.94,1.24,3.3,3.86l.02.14h.53l-.19-4.58h-9.05v.58h.66c.74,0,.93.19.93.89v9.21c0,.71-.19.89-.93.89h-.66v.58h9.24l.31-4.94h-.53l-.02.13h0,0Z"/>
          <path class="cls-1" d="M50.31,94.51c-2.57-.73-3-1.38-3-2.56s.89-2.13,2.13-2.13c1.35,0,3.03,1.12,3.68,4.29l.03.13h.55l-.13-4.97h-.5l-.03.12c-.24.83-.41.94-.54.94-.22,0-.36-.1-.55-.23l-.05-.04c-.79-.56-1.56-.81-2.5-.81-1.86,0-3.31,1.48-3.31,3.36,0,2.54,2,3.16,3.77,3.71l.18.06c1.93.59,3.06,1.21,3.06,2.6,0,1.31-.87,2.2-2.16,2.2-1.65,0-3.79-1.12-4.38-4.3l-.03-.13h-.56l.13,5.01h.51l.03-.12c.13-.59.31-.93.5-.93.21,0,.39.1.65.24l.18.09c.61.31,1.44.74,2.89.74,1.95,0,3.36-1.45,3.36-3.45,0-2.24-1.44-3.09-3.92-3.8h0,0Z"/>
          <path class="cls-1" d="M69.67,89.73c2.49,0,3.01,3.15,3.01,5.79,0,3.8-1,5.72-2.97,5.72-2.49,0-3.01-3.15-3.01-5.79,0-3.8,1-5.72,2.97-5.72ZM69.7,89.13c-2.37,0-5.02,2.62-5.02,6.39,0,2.99,2.05,6.32,4.99,6.32,2.43,0,5.02-2.57,5.02-6.39s-2.63-6.32-4.99-6.32Z"/>
          <path class="cls-1" d="M88.15,90.85c0-.69.19-.86.95-.86h.43c2.29,0,2.61,1.25,2.61,2.61,0,1.27-.43,2.78-2.51,2.78h-1.49v-4.53h0ZM95.32,98.65h-.57v.16c.02.94-.18,1.27-.29,1.39-.06.06-.13.09-.2.09-.47,0-.74-.32-1.39-2.23-.48-1.38-1.14-1.97-1.82-2.32,1.94-.47,3-1.59,3-3.2,0-.83-.26-1.51-.78-2.03-.75-.74-2-1.12-3.7-1.11h-4.76v.58h.66c.75,0,.93.17.93.88v9.22c0,.71-.19.89-.93.89h-.66v.58h5.03v-.58h-.73c-.74,0-.95-.2-.95-.89v-4.13h1.02c1.4,0,1.86.13,2.16,2.83.23,2.03.93,2.93,2.27,2.93.45,0,.84-.17,1.14-.49.47-.5.67-1.35.59-2.43v-.15h0Z"/>
          <path class="cls-1" d="M105.38,89.41l-.24,4.94h.55l.02-.13c.42-2.55.86-4.23,3.23-4.23h.29v10.12c0,.7-.19.88-.93.88h-.96v.58h5.51v-.58h-.94c-.75,0-.93-.17-.93-.88v-10.12h.29c2.19,0,2.79,1.36,3.23,4.22l.02.13h.54l-.2-4.94h-9.49Z"/>
          <path class="cls-1" d="M147.01,96.77c-.27,2.87-.68,4.22-3.3,4.22h-.78c-.75,0-.95-.18-.95-.88v-9.24c0-.7.19-.88.95-.88h.94v-.58h-5.23v.58h.66c.75,0,.93.17.93.88v9.24c0,.71-.18.88-.93.88h-.66v.58h8.67l.32-4.94h-.59v.14h-.02Z"/>
          <path class="cls-1" d="M157.84,89.99h.71c.75,0,.93.17.93.88v9.24c0,.71-.18.88-.93.88h-.71v.58h5.06v-.58h-.7c-.74,0-.93-.18-.93-.88v-9.24c0-.7.19-.88.93-.88h.7v-.58h-5.06v.58Z"/>
          <path class="cls-1" d="M180.7,89.99h.47c.28,0,.93.06.93.58,0,.42-.22,1.08-.39,1.54l-2.67,7.35-2.79-7.9c-.14-.41-.22-.78-.22-1.09,0-.29.33-.48.83-.48h.64v-.58h-4.87v.57h.15c.82.06,1.1.28,1.42,1.13l3.95,10.68.04.11h.57l3.88-10.3c.5-1.32.66-1.49,1.53-1.61l.14-.02v-.56h-3.61v.58h0s0,0,0,0Z"/>
          <path class="cls-1" d="M193.99,89.99h.71c.75,0,.93.17.93.88v9.24c0,.71-.18.88-.93.88h-.71v.58h5.06v-.58h-.7c-.74,0-.93-.18-.93-.88v-9.24c0-.7.19-.88.93-.88h.7v-.58h-5.06v.58Z"/>
          <path class="cls-1" d="M216.88,89.99h.23c1.16,0,1.52.27,1.52,1.99v6.89l-6.96-9.45h-3.01v.57h.15c.82.04,1.48.51,1.73.83v8.2c0,1.67-.36,1.97-1.36,1.97h-.38v.58h4.18v-.58h-.23c-1.16,0-1.52-.27-1.52-1.97v-7.24l7.39,10.02h.69v-9.83c0-1.71.41-1.99,1.38-1.99h.37v-.58h-4.18v.58h0Z"/>
          <path class="cls-1" d="M236.73,96.04v.58h.73c.69,0,.93.13.93.9v1.43c0,1.06-.77,2.14-2.23,2.14-1.58,0-3.16-1.73-3.16-5.6,0-2.82.9-5.66,2.92-5.66,1.55,0,2.89,1.54,3.58,4.12l.03.12h.55l-.15-4.89h-.48l-.02.13c-.13.7-.36.94-.52.94-.26,0-.39-.08-.59-.2-.61-.41-1.37-.82-2.36-.82-2.4,0-4.99,2.42-4.99,6.32,0,2.98,2,6.16,4.99,6.16,1.05,0,1.56-.31,2.3-.82.2-.13.39-.2.52-.2.21,0,.51.28.71.91l.04.11h.47v-4.21c0-.76.24-.9.93-.9h.28v-.58h-4.49,0Z"/>
        </g>
        <g>
          <polygon class="cls-1" points="11.51 1.36 46.62 53.54 46.62 1.36 50.65 1.36 50.65 68.5 45.18 68.5 8.25 13.63 8.25 68.49 4.31 68.49 4.31 7.78 0 1.36 11.51 1.36"/>
          <path class="cls-1" d="M72.7,51.52h27.53l-13.91-34.24-13.62,34.24h0ZM61.67,68.49l22.44-56.49-4.32-10.65h10.36l27.34,67.14h-10.36l-5.28-13.05h-30.69l-5.18,13.05h-4.32,0Z"/>
          <path class="cls-1" d="M144.41,62.06c.62.35,1.26.66,1.9.95s1.3.54,1.97.77c2.97,1.01,6.01,1.4,9.12,1.18s6.18-1.04,9.19-2.44c3.01-1.41,5.85-3.38,8.5-5.92,2.65-2.54,4.96-5.61,6.93-9.19,2.19-4.05,3.61-8.08,4.26-12.08.65-4,.61-7.76-.11-11.28-.73-3.52-2.1-6.69-4.11-9.5-2.02-2.81-4.62-5.07-7.83-6.77-1.13-.65-2.45-1.24-3.96-1.75-2.91-.99-5.92-1.37-9.03-1.15-3.12.22-6.16,1.04-9.15,2.46-2.98,1.42-5.8,3.4-8.45,5.94-2.66,2.54-4.96,5.61-6.93,9.19-2.19,4.05-3.61,8.08-4.26,12.08s-.61,7.76.11,11.28c.73,3.53,2.1,6.69,4.11,9.5,2.01,2.81,4.6,5.06,7.74,6.74h0ZM123.25,34.93c0-5.18.94-9.93,2.83-14.24s4.46-8.01,7.72-11.08c3.26-3.07,7.1-5.45,11.51-7.15C149.73.77,154.42-.05,159.41.01c4.99-.06,9.67.75,14.05,2.44,4.38,1.69,8.2,4.08,11.46,7.15,3.26,3.07,5.84,6.76,7.72,11.08,1.89,4.32,2.83,9.06,2.83,14.24s-.95,9.93-2.83,14.24c-1.89,4.32-4.46,8.01-7.72,11.08-3.26,3.07-7.08,5.45-11.46,7.15s-9.06,2.51-14.05,2.44c-4.99.06-9.69-.75-14.1-2.44-4.41-1.69-8.25-4.08-11.51-7.15-3.26-3.07-5.84-6.76-7.72-11.08-1.89-4.32-2.83-9.06-2.83-14.24h0Z"/>
          <path class="cls-1" d="M206.03,60.63l6.33-6.33c.51,1.09,1.28,2.3,2.3,3.65,2.24,2.88,4.75,4.89,7.53,6.04s5.39,1.47,7.82.96c3.32-.7,5.4-2.41,6.24-5.13.83-2.72.67-5.84-.48-9.35-.45-1.41-1.15-2.83-2.11-4.27-.96-1.44-2.08-2.89-3.36-4.37-1.28-1.47-2.67-2.91-4.17-4.32-1.5-1.41-3.06-2.78-4.65-4.13-1.09-.89-2.22-1.84-3.4-2.83-1.19-.99-2.29-2.05-3.31-3.16s-1.95-2.35-2.78-3.69c-.83-1.34-1.44-2.84-1.82-4.51-.77-3.07-.77-5.74,0-8.01.77-2.27,1.9-4.19,3.4-5.76,1.5-1.57,3.18-2.76,5.04-3.6,1.85-.83,3.45-1.34,4.8-1.53,4.03-.58,7.56-.32,10.6.77s5.36,2.49,6.95,4.22l-3.93,3.93c-1.86-1.85-3.79-3.26-5.8-4.22-2.01-.96-3.92-1.44-5.71-1.44s-3.23.42-4.32,1.25c-1.15.83-1.94,1.92-2.35,3.26-.42,1.34-.59,2.65-.53,3.93.13,1.6.5,3.01,1.1,4.22s1.41,2.38,2.4,3.5c.99,1.12,2.11,2.21,3.36,3.26,1.25,1.05,2.57,2.19,3.98,3.4,3.52,3.07,6.36,5.84,8.54,8.3,2.17,2.46,3.85,4.72,5.04,6.76,1.18,2.05,1.95,4.01,2.3,5.9.35,1.89.46,3.79.34,5.71-.13,2.43-.85,4.7-2.16,6.81-1.31,2.11-2.9,3.9-4.75,5.37-2.05,1.67-4.27,2.83-6.67,3.5-2.4.67-4.88,1.04-7.43,1.1-3.97.13-7.55-.66-10.74-2.35-3.2-1.69-5.72-3.98-7.58-6.86h0Z"/>
          <g>
            <path class="cls-1" d="M255.64,64.14c-2.67.28-3.95,3.66-2.24,5.73,1.82,2.2,5.4,1.48,6.15-1.28.68-2.52-1.35-4.72-3.91-4.45h0ZM255.6,63.24c3.21-.3,5.7,2.52,4.81,5.66-1.06,3.74-6.26,4.3-8.14.89-1.48-2.7.23-6.26,3.33-6.55h0Z"/>
            <path class="cls-1" d="M255.38,67.28h.74c.06,0,.28-.11.34-.16.27-.27.13-1.01-.24-1.01h-.83v1.17h0ZM256.35,65.21c.25.02.7.13.92.25.85.47.67,2-.31,2.2.8.45,1,1.44,1.44,2.19h-1.31c-.22-.39-.5-1.28-.81-1.56-.16-.15-.9-.32-.9-.13v1.69h-1.17v-4.64c.69.04,1.46-.06,2.14,0h0Z"/>
          </g>
        </g>
      </g>
    </g>
  </g>
</svg>