<?xml version="1.0" encoding="UTF-8"?>
<svg id="Capa_1" xmlns="http://www.w3.org/2000/svg" version="1.1" xmlns:xlink="http://www.w3.org/1999/xlink" viewBox="0 0 32 32">
  <!-- Generator: Adobe Illustrator 29.8.1, SVG Export Plug-In . SVG Version: 2.1.1 Build 2)  -->
  <defs>
    <style>
      .st0 {
        fill: none;
      }

      .st1 {
        fill: #3a3a3a;
      }

      .st2 {
        clip-path: url(#clippath);
      }
    </style>
    <clipPath id="clippath">
      <rect class="st0" x=".1" y=".7" width="31.1" height="31.1"/>
    </clipPath>
  </defs>
  <g class="st2">
    <g>
      <path class="st1" d="M15.7,3.5c4.1,0,4.6,0,6.3,0,1.5,0,2.3.3,2.9.5.7.3,1.2.6,1.8,1.2.5.5.9,1.1,1.2,1.8.2.5.5,1.4.5,2.9,0,1.6,0,2.1,0,6.3s0,4.6,0,6.3c0,1.5-.3,2.3-.5,2.9-.3.7-.6,1.2-1.2,1.8-.5.5-1.1.9-1.8,1.2-.5.2-1.4.5-2.9.5-1.6,0-2.1,0-6.3,0s-4.6,0-6.3,0c-1.5,0-2.3-.3-2.9-.5-.7-.3-1.2-.6-1.8-1.2-.5-.5-.9-1.1-1.2-1.8-.2-.5-.5-1.4-.5-2.9,0-1.6,0-2.1,0-6.3s0-4.6,0-6.3c0-1.5.3-2.3.5-2.9.3-.7.6-1.2,1.2-1.8.5-.5,1.1-.9,1.8-1.2.5-.2,1.4-.5,2.9-.5,1.6,0,2.1,0,6.3,0ZM15.7.7c-4.2,0-4.7,0-6.4,0-1.7,0-2.8.3-3.8.7-1,.4-1.9.9-2.8,1.8-.9.9-1.4,1.7-1.8,2.7-.4,1-.6,2.1-.7,3.8,0,1.7,0,2.2,0,6.4s0,4.7,0,6.4c0,1.7.3,2.8.7,3.8.4,1,.9,1.9,1.8,2.8.9.9,1.7,1.4,2.7,1.8,1,.4,2.1.6,3.8.7,1.7,0,2.2,0,6.4,0s4.7,0,6.4,0c1.7,0,2.8-.3,3.8-.7,1-.4,1.9-.9,2.7-1.8.9-.9,1.4-1.7,1.8-2.7.4-1,.6-2.1.7-3.8,0-1.7,0-2.2,0-6.4s0-4.7,0-6.4c0-1.7-.3-2.8-.7-3.8-.4-1-.9-1.9-1.8-2.8-.9-.9-1.7-1.4-2.7-1.8-1-.4-2.1-.6-3.8-.7-1.7,0-2.2,0-6.4,0Z"/>
      <path class="st1" d="M15.7,8.3c-4.4,0-8,3.6-8,8s3.6,8,8,8,8-3.6,8-8-3.6-8-8-8ZM15.7,21.5c-2.9,0-5.2-2.3-5.2-5.2s2.3-5.2,5.2-5.2,5.2,2.3,5.2,5.2-2.3,5.2-5.2,5.2Z"/>
      <path class="st1" d="M25.8,8c0,1-.8,1.9-1.9,1.9s-1.9-.8-1.9-1.9.8-1.9,1.9-1.9,1.9.8,1.9,1.9Z"/>
    </g>
  </g>
</svg>