<?xml version="1.0" encoding="UTF-8"?>
<svg id="Capa_1" xmlns="http://www.w3.org/2000/svg" version="1.1" viewBox="0 0 491 512">
  <!-- Generator: Adobe Illustrator 29.8.1, SVG Export Plug-In . SVG Version: 2.1.1 Build 2)  -->
  <defs>
    <style>
      .st0 {
        fill: #595151;
        opacity: .1;
      }
    </style>
  </defs>
  <path class="st0" d="M-19.3,505.7c-59.7-23.9-124.3-44.7-188.1-43.4,66.7-40.1,152-7.5,229.5-13.9-52.8-46.3-116.3-80.2-184.1-98.4,72.4-15,147.3.6,219.6,16-10.9-35.1-159.1-101.6-188.1-124.3,115,5.7,179.1,22.6,234,112.3C-19.1,143.6,3.5,132.3-17.9,78.4c-1.5-3.7,2.9-6.6,5.1-3.3,34.9,50.8,114.4,74.2,149.1,277.7,5.5-78.6,19.9-156.5,42.9-231.9,13.3-43.5,30.2-87.5,61.9-120.1-26.5,133-35.7,269.4-27.3,404.8,29.4-91.2,82.4-174.7,152.4-240.1-41.6,90.9-71.4,187.1-88.6,285.6,85.7-113.4,123-150.8,172.8-218.8,16.7,23.5-51,105.3-74.1,142.4-11.3,18.1-22.8,38.2-20,59.3,37.8-42.1,83.7-76.8,134.6-101.7-46.1,50.7-82.9,109.7-108.2,173.4-2.2,5.5-302.7,5.5-373.6,5.5-9.7,0-19.2-1.8-28.2-5.4h0Z"/>
</svg>