<svg width="140" height="335" viewBox="0 0 140 335" fill="none" xmlns="http://www.w3.org/2000/svg">
<path d="M136.769 44.6154C134.741 30.6052 129.254 28.661 125.281 28.5489C118.033 28.3463 116.942 51.5257 114.901 71.2564C114.198 78.0805 116.968 137.842 117.99 156.93C118.348 163.569 109.707 172.354 103.508 179.454C102.577 137.191 100.954 94.9401 98.6293 52.7414C98.1892 44.7922 97.7017 36.7137 95.135 29.2344C91.6536 19.0953 84.6825 10.909 77.323 3.30467C74.5189 0.407791 70.0238 -0.06209 66.7107 2.24421C60.4124 6.62402 55.7619 13.7671 53.1606 21.3628C49.744 31.3337 49.3212 42.1281 49.002 52.7241C46.7674 127.25 48.1694 196.452 52.8371 268.382C51.0943 266.68 49.6147 264.727 48.4758 262.589L40.5037 247.656C35.7498 238.754 32.937 229.098 32.1777 219.226C29.818 188.511 26.6215 158.391 24.8917 127.228C24.883 127.086 24.8743 126.948 24.87 126.806C24.0805 112.86 3.78357 112.214 2.03212 126.073C-4.05913 174.234 5.94056 218.734 21.2636 269.594C26.9234 288.38 42.0824 299.386 55.4383 304.563C56.1674 313.84 56.9482 323.182 57.7808 332.61L58.0526 332.549C71.1971 333.054 84.3373 333.558 97.4775 334.062C98.6509 334.105 99.8717 334.144 100.937 333.623C103.5 332.377 103.914 328.782 103.961 325.807C104.63 284.139 104.613 242.457 103.927 200.788C110.122 199.202 115.876 196.081 121.666 189.684C132.23 178.019 137.256 155.175 137.968 139.458C139.059 115.253 140.936 73.3946 136.777 44.6154H136.769Z" fill="#3A383A" fill-opacity="0.2"/>
</svg>
