<?xml version="1.0" encoding="UTF-8"?>
<svg id="Capa_1" xmlns="http://www.w3.org/2000/svg" version="1.1" viewBox="0 0 926.7 959">
  <!-- Generator: Adobe Illustrator 29.8.1, SVG Export Plug-In . SVG Version: 2.1.1 Build 2)  -->
  <defs>
    <style>
      .st0 {
        fill: #fff;
        opacity: .1;
      }
    </style>
  </defs>
  <path class="st0" d="M447.3,959c-.9,0-1.6-1-1.4-1.9,3.8-12,3.8-21.5.6-35.5-7.5-33.1-49.8-41.3-83.5-45.4-56.6-7-112.3-21.4-165.2-42.9-41.8-17-83.9-40.3-106.1-79.6-22.2-39.3-15.3-97.6,24.5-118.7-.3,44.2,21.1,88.1,56,115.1,24.8,19.1,55.4,29.9,78.5,50.9,10.1,9.2,18.7,20.3,29.6,28.6,29.8,22.9,70.8,21.7,108.3,19.5,12.9-.7,30-5.9,27.8-19.6-.4-2.4-1.5-4.7-3-6.9-32.8-46.3-97-51.6-147.1-76.8-44.6-22.5-79-62.1-102.2-106.4-23.2-44.2-36-93.2-45.6-142.3-4.5-23.4-8.4-47.7-3.4-71,8-36.7,40.1-66.9,77.3-72.7-15,46.3-16.9,96.9-5.5,144.3,25.5,106.4,113.7,186.8,208.3,241.7,9.4,5.5,25.4,8,27.3-2.8.7-4.2-1.2-8.4-4.4-11.3-149.4-127.2-209.2-349.3-144.5-534.5,9.6-27.4,24.7-57,52.6-65.4,1.3,103.7-17.2,207.1-11.4,310.5,5.7,103.4,41,212.7,125.1,273.4-21.8-82.4-24-168.7-26-254.1-2.7-117.8-5.5-235.6-8.2-353.3-.3-13.2-.4-27.1,5.8-38.8,8.8-16.5,27.1-23.7,46-27.5,6-1.3,11,4.7,8.7,10.6-16.8,41.3-.8,91.1,8.7,136.3,39.1,186.6-46.4,387,11.8,568.4-2.5-130.5-3.7-267.2,56.3-383.1,24.6-47.5,59.6-92.9,61.9-146.3.6-16.3-1.6-33.7,9.3-46.9,5.9-7.3,15.9-10.2,24.5-6.6,8,3.4,9.1,10,9.9,16.5,9.4,69.9-1,142.2-29.3,206.7-26.4,59.7-67.8,112.5-88.1,174.5-24.7,74.8-16.7,156.2-5.3,234.2-2.1-42.3,18-83.1,44.5-116.1,26.5-33.1,59.3-60.5,88.6-91.2,77.6-81.7,128.7-188.4,143.6-300.1,17-6.5,36.3,7.6,42.1,24.9,5.8,17.3,1.9,36.2-2.1,54-14.4,64.5-29.2,130.6-64.8,186.2-29.6,46.2-71.8,82.8-112.6,119.5-40.8,36.7-81.6,75.4-106.9,124-24.6,47.3-32.5,106.5-8.5,153.9.9,1.9-.4,4-2.5,4l-99.6.2h0Z"/>
</svg>