<?xml version="1.0" encoding="UTF-8"?>
<svg id="Capa_1" xmlns="http://www.w3.org/2000/svg" version="1.1" viewBox="0 0 555 876">
  <!-- Generator: Adobe Illustrator 29.8.1, SVG Export Plug-In . SVG Version: 2.1.1 Build 2)  -->
  <defs>
    <style>
      .st0 {
        fill: #fff;
        isolation: isolate;
        opacity: .1;
      }
    </style>
  </defs>
  <path class="st0" d="M348.9,875.4c-.9,0-1.5-.9-1.3-1.8,3.6-11.4,3.6-20.4.6-33.6-7.1-31.4-47.2-39.1-79.1-43-53.6-6.6-106.4-20.3-156.5-40.6-39.6-16.1-79.5-38.2-100.5-75.4s-14.5-92.5,23.2-112.5c-.3,41.9,20,83.5,53.1,109,23.5,18.1,52.5,28.3,74.4,48.2,9.6,8.7,17.7,19.2,28,27.1,28.2,21.7,67.1,20.6,102.6,18.5,12.2-.7,28.4-5.6,26.3-18.6-.4-2.3-1.4-4.5-2.8-6.5-31.1-43.9-91.9-48.9-139.4-72.8-42.3-21.3-74.8-58.8-96.8-100.8-22-41.9-34.1-88.3-43.2-134.8-4.3-22.2-8-45.2-3.2-67.3,7.6-34.8,38-63.4,73.2-68.9-14.2,43.9-16,91.8-5.2,136.7,24.2,100.8,107.7,177,197.3,229,8.9,5.2,24.1,7.6,25.9-2.7.7-4-1.1-8-4.2-10.7-141.5-120.5-198.2-330.9-136.9-506.4,9.1-26,23.4-54,49.8-62,1.2,98.2-16.3,196.2-10.8,294.2,5.4,98,38.8,201.5,118.5,259-20.7-78.1-22.7-159.8-24.6-240.7-2.6-111.6-5.2-223.2-7.8-334.7-.3-12.5-.4-25.7,5.5-36.8,8.3-15.6,25.7-22.5,43.6-26.1,5.7-1.2,10.4,4.5,8.2,10-15.9,39.1-.8,86.3,8.2,129.1,37,176.8-44,366.6,11.2,538.5-2.4-123.6-3.5-253.1,53.3-362.9,23.3-45,56.5-88,58.6-138.6.6-15.4-1.5-31.9,8.8-44.4,5.6-6.9,15.1-9.7,23.2-6.3,7.6,3.2,8.6,9.5,9.4,15.6,8.9,66.2-.9,134.7-27.8,195.8-25,56.6-64.2,106.6-83.5,165.3-23.4,70.9-15.8,148-5,221.9-2-40.1,17.1-78.7,42.2-110,25.1-31.4,56.2-57.3,83.9-86.4,73.5-77.4,121.9-178.5,136-284.3,16.1-6.2,34.4,7.2,39.9,23.6,5.5,16.4,1.8,34.3-2,51.2-13.6,61.1-27.7,123.7-61.4,176.4-28,43.8-68,78.4-106.7,113.2s-77.3,71.4-101.3,117.5c-23.3,44.8-30.8,100.9-8.1,145.8.9,1.8-.4,3.8-2.4,3.8l-94.4.2h0Z"/>
</svg>