<?xml version="1.0" encoding="UTF-8"?>
<svg id="Capa_1" xmlns="http://www.w3.org/2000/svg" version="1.1" viewBox="0 0 386 475">
  <!-- Generator: Adobe Illustrator 29.8.1, SVG Export Plug-In . SVG Version: 2.1.1 Build 2)  -->
  <defs>
    <style>
      .st0 {
        fill: #3a383a;
        isolation: isolate;
        opacity: .1;
      }
    </style>
  </defs>
  <path class="st0" d="M-11.8,487.8c14.1-40.9,28.3-82.1,49.1-120,6.4-11.6,22.8-44.9,26.9-57.5,0,0-12.1-56.7-24.6-94.5-10.5-31.7-19.2-64.7-17.9-98.1,1.4-33.4,13.4-54.4,40.1-88.3-2.4,0,9.7-2.4,9.7-2.4.7,7.6-7.3,28.8-6.4,36.5,1.7,13.7,10.5,25.3,18.3,36.7,27.2,39.9,53.3,147.8,58.9,150.8,2.8,1.5,13.3-1.4,16.5-1.3,16.1.5,25,6.4,39.9,12.5,26.7,10.9,48.5,31.2,74,44.6,23.6,12.4,75.6,17.7,80.6,18.2.3,0,.5,0,.7.2l18.5,9.3c1.2.6,1.6,2.2.7,3.2-2.4,2.9-7,7.8-10.9,9.2-63.5,21.1-133.2,15-197.8-2.4-12.1-3.3-24.3-6.9-36.9-7-12.6,0-25.8,4.2-33.6,14-6.4,8.1-8.2,18.7-9.4,28.9-4.4,39.8-.5,80,3.4,119.9-33.1,1.7-66.5-2.2-98.3-11.5"/>
</svg>